<svg width="128" height="128" viewBox="0 0 128 128" fill="none" xmlns="http://www.w3.org/2000/svg">
<path d="M108 16H20C15.5817 16 12 19.5817 12 24V108C12 112.418 15.5817 116 20 116H108C112.418 116 116 112.418 116 108V24C116 19.5817 112.418 16 108 16Z" fill="url(#paint0_linear_30_260)"/>
<path d="M108 12H20C15.5817 12 12 15.5817 12 20V104C12 108.418 15.5817 112 20 112H108C112.418 112 116 108.418 116 104V20C116 15.5817 112.418 12 108 12Z" fill="white"/>
<path d="M100 88H28C25.7909 88 24 89.7909 24 92C24 94.2091 25.7909 96 28 96H100C102.209 96 104 94.2091 104 92C104 89.7909 102.209 88 100 88Z" fill="#E1DEDB"/>
<path d="M68.125 88H28C25.7909 88 24 89.7909 24 92C24 94.2091 25.7909 96 28 96H68.125C70.3341 96 72.125 94.2091 72.125 92C72.125 89.7909 70.3341 88 68.125 88Z" fill="#3584E4"/>
<path fill-rule="evenodd" clip-rule="evenodd" d="M69.8744 32.5556C65.7809 35.394 61.4526 39.0093 57.231 43.231C43.7213 56.7406 36.4201 71.343 40.9234 75.8462C45.4266 80.3494 60.0289 73.0482 73.5386 59.5386C87.0483 46.0289 94.3494 31.4266 89.8462 26.9234C87.539 24.6162 82.581 25.4075 76.4772 28.5448C76.511 28.5547 76.5453 28.5634 76.58 28.5708L78.8987 29.0687C81.0236 28.6816 82.7018 28.952 83.7308 29.981C87.3897 33.6399 81.4575 45.5043 70.4809 56.4809C59.5043 67.4575 47.6399 73.3897 43.981 69.7308C40.3222 66.072 46.2544 54.2076 57.231 43.231C61.6788 38.7832 66.2723 35.1636 70.4067 32.6748C70.3692 32.6635 70.331 32.6536 70.2922 32.6453L69.8744 32.5556Z" fill="#51A2DA"/>
<path fill-rule="evenodd" clip-rule="evenodd" d="M74.8767 49.4838C74.9122 46.4871 73.7867 43.4791 71.5001 41.1925C66.9969 36.6893 59.6957 36.6893 55.1925 41.1925C50.6893 45.6957 50.6893 52.9969 55.1925 57.5001C57.4791 59.7867 60.4871 60.9122 63.4838 60.8767C65.4627 59.2627 67.4741 57.449 69.4616 55.4615C71.449 53.4741 73.2627 51.4626 74.8767 49.4838Z" fill="#51A2DA"/>
<path d="M73.4362 24.8425L74.1839 28.3248C74.3491 29.0941 74.9501 29.6951 75.7195 29.8603L79.2018 30.6081L75.7195 31.3559C74.9501 31.5211 74.3491 32.1221 74.1839 32.8914L73.4362 36.3737L72.6884 32.8914C72.5232 32.1221 71.9222 31.5211 71.1528 31.3559L67.6705 30.6081L71.1528 29.8603C71.9222 29.6951 72.5232 29.0941 72.6884 28.3248L73.4362 24.8425Z" fill="#51A2DA"/>
<defs>
<linearGradient id="paint0_linear_30_260" x1="11.9997" y1="115.999" x2="115.998" y2="115.999" gradientUnits="userSpaceOnUse">
<stop stop-color="#ACABAE"/>
<stop offset="0.038" stop-color="#F7F7F7"/>
<stop offset="0.077" stop-color="#DEDDDA"/>
<stop offset="0.923" stop-color="#B0AFAD"/>
<stop offset="0.962" stop-color="#C0BFBC"/>
<stop offset="1" stop-color="#77767B"/>
</linearGradient>
</defs>
</svg>
