<svg width="49" height="49" viewBox="0 0 49 49" fill="none" xmlns="http://www.w3.org/2000/svg">
<path fill-rule="evenodd" clip-rule="evenodd" d="M28.4996 12.3217C25.6596 14.2909 22.6568 16.7991 19.7279 19.7279C10.3553 29.1005 5.29002 39.2311 8.41421 42.3553C11.5384 45.4795 21.669 40.4142 31.0416 31.0416C40.4142 21.6691 45.4795 11.5384 42.3553 8.41422C40.7547 6.81359 37.315 7.36258 33.0804 9.53911C33.1038 9.54597 33.1276 9.55201 33.1517 9.55718L34.7603 9.90262C36.2345 9.63403 37.3988 9.82162 38.1127 10.5356C40.6511 13.074 36.5355 21.3051 28.9203 28.9203C21.3051 36.5356 13.0739 40.6511 10.5355 38.1127C7.99712 35.5743 12.1127 27.3432 19.7279 19.7279C22.8137 16.6422 26.0005 14.1311 28.8688 12.4044C28.8428 12.3965 28.8163 12.3897 28.7894 12.3839L28.4996 12.3217Z" fill="#51A2DA"/>
<path fill-rule="evenodd" clip-rule="evenodd" d="M31.97 24.0662C31.9947 21.9871 31.2138 19.9001 29.6274 18.3137C26.5032 15.1895 21.4379 15.1895 18.3137 18.3137C15.1895 21.4379 15.1895 26.5032 18.3137 29.6274C19.9001 31.2138 21.9871 31.9947 24.0662 31.97C25.439 30.8503 26.8344 29.592 28.2132 28.2132C29.592 26.8344 30.8503 25.439 31.97 24.0662Z" fill="white"/>
<path d="M30.9706 6.97056L31.4062 8.99937C31.5714 9.76871 32.1724 10.3697 32.9417 10.5349L34.9706 10.9706L32.9417 11.4062C32.1724 11.5714 31.5714 12.1724 31.4062 12.9417L30.9706 14.9706L30.5349 12.9417C30.3697 12.1724 29.7687 11.5714 28.9994 11.4062L26.9706 10.9706L28.9994 10.5349C29.7687 10.3697 30.3697 9.76872 30.5349 8.99937L30.9706 6.97056Z" fill="white"/>
</svg>
