<svg width="169" height="48" viewBox="0 0 169 48" fill="none" xmlns="http://www.w3.org/2000/svg">
<g clip-path="url(#clip0_23_3)">
<path fill-rule="evenodd" clip-rule="evenodd" d="M28.4996 12.3217C25.6596 14.2909 22.6568 16.7991 19.7279 19.7279C10.3553 29.1005 5.29002 39.2311 8.41422 42.3553C11.5384 45.4795 21.6691 40.4142 31.0416 31.0416C40.4142 21.6691 45.4795 11.5384 42.3553 8.41422C40.7547 6.81359 37.315 7.36258 33.0804 9.53911C33.1038 9.54597 33.1276 9.55201 33.1517 9.55718L34.7603 9.90262C36.2345 9.63403 37.3988 9.82162 38.1127 10.5356C40.6511 13.074 36.5355 21.3051 28.9203 28.9203C21.3051 36.5356 13.0739 40.6511 10.5355 38.1127C7.99712 35.5743 12.1127 27.3432 19.7279 19.7279C22.8137 16.6422 26.0006 14.1311 28.8688 12.4044C28.8428 12.3965 28.8163 12.3897 28.7894 12.3839L28.4996 12.3217Z" fill="#51A2DA"/>
<path fill-rule="evenodd" clip-rule="evenodd" d="M31.97 24.0662C31.9947 21.9871 31.2138 19.9001 29.6274 18.3137C26.5032 15.1895 21.4379 15.1895 18.3137 18.3137C15.1895 21.4379 15.1895 26.5032 18.3137 29.6274C19.9001 31.2138 21.9871 31.9947 24.0662 31.97C25.439 30.8503 26.8344 29.592 28.2132 28.2132C29.592 26.8344 30.8503 25.439 31.97 24.0662Z" fill="white"/>
<path d="M30.9706 6.97056L31.4062 8.99937C31.5714 9.76871 32.1724 10.3697 32.9417 10.5349L34.9706 10.9706L32.9417 11.4062C32.1724 11.5714 31.5714 12.1724 31.4062 12.9417L30.9706 14.9706L30.5349 12.9417C30.3697 12.1724 29.7687 11.5714 28.9994 11.4062L26.9706 10.9706L28.9994 10.5349C29.7687 10.3697 30.3697 9.76872 30.5349 8.99937L30.9706 6.97056Z" fill="white"/>
<path d="M59.9883 25.2773H51.9707V22.7188H59.9883V25.2773ZM61.1309 31H51.9707C51.6191 31 51.235 30.9382 50.8184 30.8145C50.4017 30.6908 50.0143 30.4889 49.6562 30.209C49.3047 29.9225 49.0085 29.5547 48.7676 29.1055C48.5332 28.6497 48.416 28.0931 48.416 27.4355V18.2754C48.416 18.0996 48.4486 17.9336 48.5137 17.7773C48.5788 17.6211 48.6667 17.4844 48.7773 17.3672C48.8945 17.25 49.0312 17.1589 49.1875 17.0938C49.3438 17.0286 49.513 16.9961 49.6953 16.9961H61.1309V19.5352H50.9551V27.4355C50.9551 27.7676 51.043 28.0215 51.2188 28.1973C51.3945 28.373 51.6517 28.4609 51.9902 28.4609H61.1309V31ZM74.9297 31H72.3906V25.1406C72.3906 24.8086 72.332 24.5124 72.2148 24.252C72.1042 23.985 71.9512 23.7572 71.7559 23.5684C71.5605 23.3796 71.3294 23.2363 71.0625 23.1387C70.8021 23.0345 70.5189 22.9824 70.2129 22.9824H65.7695V31H63.2305V21.7031C63.2305 21.5273 63.263 21.3646 63.3281 21.2148C63.3932 21.0586 63.4844 20.9251 63.6016 20.8145C63.7188 20.6973 63.8555 20.6061 64.0117 20.541C64.168 20.4759 64.334 20.4434 64.5098 20.4434H70.2324C70.5514 20.4434 70.8867 20.4792 71.2383 20.5508C71.5964 20.6224 71.9479 20.7396 72.293 20.9023C72.6445 21.0586 72.9766 21.2604 73.2891 21.5078C73.6081 21.7487 73.888 22.0449 74.1289 22.3965C74.3763 22.7415 74.5716 23.1419 74.7148 23.5977C74.8581 24.0534 74.9297 24.5677 74.9297 25.1406V31ZM87.3809 31H80.4961C80.1445 31 79.7604 30.9382 79.3438 30.8145C78.9271 30.6908 78.5397 30.4889 78.1816 30.209C77.8301 29.9225 77.5339 29.5547 77.293 29.1055C77.0586 28.6497 76.9414 28.0931 76.9414 27.4355V23.998C76.9414 23.7572 76.9674 23.5033 77.0195 23.2363C77.0781 22.9694 77.166 22.7057 77.2832 22.4453C77.4004 22.1784 77.5501 21.9245 77.7324 21.6836C77.9212 21.4427 78.1458 21.2311 78.4062 21.0488C78.6732 20.8665 78.9792 20.7201 79.3242 20.6094C79.6693 20.4987 80.0599 20.4434 80.4961 20.4434H87.3809V22.9824H80.4961C80.1641 22.9824 79.9102 23.0671 79.7344 23.2363C79.5651 23.4056 79.4805 23.666 79.4805 24.0176V27.4355C79.4805 27.7676 79.5684 28.0215 79.7441 28.1973C79.9199 28.373 80.1771 28.4609 80.5156 28.4609H87.3809V31ZM100.76 23.9395C100.76 24.291 100.698 24.6719 100.574 25.082C100.451 25.4857 100.249 25.8633 99.9688 26.2148C99.6953 26.5599 99.334 26.8496 98.8848 27.084C98.4421 27.3184 97.9017 27.4355 97.2637 27.4355H92.6836V25.0234H97.2637C97.6087 25.0234 97.8757 24.9193 98.0645 24.7109C98.2533 24.4961 98.3477 24.2324 98.3477 23.9199C98.3477 23.5879 98.2402 23.3275 98.0254 23.1387C97.8171 22.9499 97.5632 22.8555 97.2637 22.8555H92.6836C92.3385 22.8555 92.0716 22.9629 91.8828 23.1777C91.694 23.3861 91.5996 23.6465 91.5996 23.959V27.5039C91.5996 27.8424 91.7038 28.1061 91.9121 28.2949C92.127 28.4837 92.3906 28.5781 92.7031 28.5781H97.2637V31H92.6836C92.332 31 91.9512 30.9382 91.541 30.8145C91.1374 30.6908 90.7598 30.4922 90.4082 30.2188C90.0632 29.9388 89.7734 29.5775 89.5391 29.1348C89.3047 28.6855 89.1875 28.1419 89.1875 27.5039V23.9395C89.1875 23.5879 89.2493 23.2103 89.373 22.8066C89.4967 22.3965 89.6953 22.0189 89.9688 21.6738C90.2487 21.3223 90.61 21.0293 91.0527 20.7949C91.502 20.5605 92.0456 20.4434 92.6836 20.4434H97.2637C97.6152 20.4434 97.9928 20.5052 98.3965 20.6289C98.8066 20.7526 99.1842 20.9544 99.5293 21.2344C99.8809 21.5078 100.174 21.8691 100.408 22.3184C100.643 22.7611 100.76 23.3014 100.76 23.9395ZM107.107 31H105.975C105.61 31 105.219 30.9382 104.803 30.8145C104.393 30.6908 104.008 30.4889 103.65 30.209C103.292 29.9225 102.996 29.5547 102.762 29.1055C102.527 28.6497 102.41 28.0931 102.41 27.4355V15.9805H104.949V27.4355C104.949 27.748 105.047 27.9987 105.242 28.1875C105.438 28.3698 105.682 28.4609 105.975 28.4609H107.107V31ZM119.637 27.5039C119.637 27.8555 119.575 28.2363 119.451 28.6465C119.327 29.0501 119.126 29.4277 118.846 29.7793C118.572 30.1243 118.211 30.4141 117.762 30.6484C117.319 30.8828 116.779 31 116.141 31H111.561C111.209 31 110.828 30.9382 110.418 30.8145C110.014 30.6908 109.637 30.4922 109.285 30.2188C108.94 29.9388 108.65 29.5775 108.416 29.1348C108.182 28.6855 108.064 28.1419 108.064 27.5039C108.064 27.1523 108.126 26.7715 108.25 26.3613C108.374 25.9512 108.572 25.5736 108.846 25.2285C109.126 24.877 109.487 24.584 109.93 24.3496C110.379 24.1152 110.923 23.998 111.561 23.998H116.141V26.4199H111.561C111.215 26.4199 110.949 26.5273 110.76 26.7422C110.571 26.9505 110.477 27.2109 110.477 27.5234C110.477 27.8555 110.584 28.1159 110.799 28.3047C111.02 28.487 111.281 28.5781 111.58 28.5781H116.141C116.486 28.5781 116.753 28.474 116.941 28.2656C117.13 28.0573 117.225 27.7969 117.225 27.4844V23.9395C117.225 23.6074 117.12 23.3438 116.912 23.1484C116.71 22.9531 116.453 22.8555 116.141 22.8555H110.564V20.4434H116.141C116.492 20.4434 116.87 20.5052 117.273 20.6289C117.684 20.7526 118.061 20.9544 118.406 21.2344C118.758 21.5078 119.051 21.8691 119.285 22.3184C119.52 22.7611 119.637 23.3014 119.637 23.9395V27.5039ZM133.387 27.4355C133.387 27.8717 133.331 28.2656 133.221 28.6172C133.11 28.9622 132.964 29.2682 132.781 29.5352C132.599 29.7956 132.387 30.0202 132.146 30.209C131.906 30.3913 131.652 30.541 131.385 30.6582C131.124 30.7754 130.857 30.8633 130.584 30.9219C130.317 30.974 130.063 31 129.822 31H125.242C124.806 31 124.415 30.9447 124.07 30.834C123.725 30.7233 123.419 30.5768 123.152 30.3945C122.892 30.2057 122.667 29.9909 122.479 29.75C122.296 29.5091 122.146 29.2585 122.029 28.998C121.912 28.7311 121.824 28.4642 121.766 28.1973C121.714 27.9238 121.688 27.6699 121.688 27.4355V23.998C121.688 23.347 121.805 22.7969 122.039 22.3477C122.28 21.8919 122.576 21.5241 122.928 21.2441C123.286 20.9577 123.673 20.7526 124.09 20.6289C124.507 20.5052 124.891 20.4434 125.242 20.4434H129.822V22.9824H125.262C124.923 22.9824 124.666 23.0703 124.49 23.2461C124.314 23.4154 124.227 23.666 124.227 23.998V27.416C124.227 27.7611 124.311 28.0215 124.48 28.1973C124.656 28.373 124.91 28.4609 125.242 28.4609H129.822C130.167 28.4609 130.424 28.373 130.594 28.1973C130.763 28.0215 130.848 27.7676 130.848 27.4355V15.9805H133.387V27.4355ZM147.352 29.7207C147.352 29.903 147.319 30.0723 147.254 30.2285C147.189 30.3848 147.098 30.5215 146.98 30.6387C146.87 30.7493 146.736 30.8372 146.58 30.9023C146.43 30.9674 146.268 31 146.092 31H140.35C140.037 31 139.702 30.9642 139.344 30.8926C138.992 30.821 138.644 30.707 138.299 30.5508C137.954 30.388 137.618 30.1862 137.293 29.9453C136.974 29.6979 136.694 29.4017 136.453 29.0566C136.212 28.7051 136.017 28.3014 135.867 27.8457C135.724 27.39 135.652 26.8757 135.652 26.3027V20.4434H138.191V26.3027C138.191 26.6348 138.247 26.9342 138.357 27.2012C138.475 27.4616 138.631 27.6862 138.826 27.875C139.021 28.0638 139.249 28.2103 139.51 28.3145C139.777 28.4121 140.063 28.4609 140.369 28.4609H144.812V20.4434H147.352V29.7207ZM159.939 27.4355C159.939 27.8717 159.884 28.2656 159.773 28.6172C159.663 28.9622 159.516 29.2682 159.334 29.5352C159.152 29.7956 158.94 30.0202 158.699 30.209C158.458 30.3913 158.204 30.541 157.938 30.6582C157.677 30.7754 157.41 30.8633 157.137 30.9219C156.87 30.974 156.616 31 156.375 31H149.5V28.4609H156.355C156.701 28.4609 156.961 28.373 157.137 28.1973C157.312 28.0215 157.4 27.7676 157.4 27.4355C157.368 26.7585 157.026 26.4199 156.375 26.4199H152.439C151.88 26.4199 151.404 26.3223 151.014 26.127C150.623 25.9316 150.304 25.6875 150.057 25.3945C149.816 25.1016 149.64 24.7858 149.529 24.4473C149.425 24.1087 149.373 23.793 149.373 23.5C149.373 22.9336 149.474 22.4583 149.676 22.0742C149.878 21.6836 150.132 21.3678 150.438 21.127C150.743 20.8861 151.076 20.7135 151.434 20.6094C151.792 20.4987 152.127 20.4434 152.439 20.4434H158.68V22.9824H152.459C152.329 22.9824 152.225 22.9987 152.146 23.0312C152.075 23.0573 152.02 23.0964 151.98 23.1484C151.948 23.194 151.928 23.2461 151.922 23.3047C151.915 23.3568 151.912 23.4089 151.912 23.4609C151.919 23.5651 151.938 23.6465 151.971 23.7051C152.003 23.7637 152.042 23.806 152.088 23.832C152.14 23.8581 152.195 23.8743 152.254 23.8809C152.319 23.8809 152.381 23.8809 152.439 23.8809H156.375C157.026 23.8809 157.579 23.998 158.035 24.2324C158.491 24.4668 158.859 24.763 159.139 25.1211C159.419 25.4727 159.62 25.8568 159.744 26.2734C159.874 26.6901 159.939 27.0775 159.939 27.4355Z" fill="white"/>
</g>
<defs>
<clipPath id="clip0_23_3">
<rect width="169" height="48" fill="white"/>
</clipPath>
</defs>
</svg>
